<svg aria-hidden="true" style="position: absolute; width: 0; height: 0; overflow: hidden;" version="1.1" xmlns="http://www.w3.org/2000/svg" xmlns:xlink="http://www.w3.org/1999/xlink">
<defs>
<symbol id="icon-spotify" viewBox="0 0 32 32">
<path d="M16 0c-8.8 0-16 7.2-16 16s7.2 16 16 16 16-7.2 16-16-7.119-16-16-16zM23.363 23.119c-0.319 0.481-0.881 0.637-1.363 0.319-3.762-2.319-8.481-2.8-14.081-1.519-0.563 0.163-1.037-0.238-1.2-0.719-0.162-0.563 0.237-1.038 0.719-1.2 6.081-1.363 11.363-0.8 15.519 1.762 0.563 0.238 0.644 0.875 0.406 1.356zM25.281 18.719c-0.4 0.563-1.119 0.8-1.681 0.4-4.319-2.637-10.881-3.438-15.919-1.837-0.638 0.163-1.362-0.163-1.519-0.8-0.162-0.637 0.162-1.363 0.8-1.519 5.838-1.762 13.037-0.881 18 2.163 0.475 0.238 0.719 1.038 0.319 1.594zM25.438 14.238c-5.119-3.037-13.681-3.363-18.563-1.838-0.8 0.238-1.6-0.238-1.838-0.963-0.237-0.8 0.237-1.6 0.963-1.838 5.681-1.681 15.038-1.363 20.962 2.162 0.719 0.4 0.962 1.363 0.563 2.081-0.406 0.556-1.363 0.794-2.087 0.394z"></path>
</symbol>
<symbol id="icon-facebook2" viewBox="0 0 32 32">
<path d="M29 0h-26c-1.65 0-3 1.35-3 3v26c0 1.65 1.35 3 3 3h13v-14h-4v-4h4v-2c0-3.306 2.694-6 6-6h4v4h-4c-1.1 0-2 0.9-2 2v2h6l-1 4h-5v14h9c1.65 0 3-1.35 3-3v-26c0-1.65-1.35-3-3-3z"></path>
</symbol>
<symbol id="icon-long-arrow-up" viewBox="0 0 12 28">
<path d="M11.953 7.703c-0.078 0.172-0.25 0.297-0.453 0.297h-3.5v19.5c0 0.281-0.219 0.5-0.5 0.5h-3c-0.281 0-0.5-0.219-0.5-0.5v-19.5h-3.5c-0.203 0-0.375-0.109-0.453-0.297s-0.047-0.391 0.078-0.547l5.469-6c0.094-0.094 0.219-0.156 0.359-0.156v0c0.141 0 0.281 0.063 0.375 0.156l5.547 6c0.125 0.156 0.156 0.359 0.078 0.547z"></path>
</symbol>
<symbol id="icon-replay" viewBox="0 0 24 24">
<path d="M12 5.016q3.328 0 5.672 2.344t2.344 5.625q0 3.328-2.367 5.672t-5.648 2.344-5.648-2.344-2.367-5.672h2.016q0 2.484 1.758 4.242t4.242 1.758 4.242-1.758 1.758-4.242-1.758-4.242-4.242-1.758v4.031l-5.016-5.016 5.016-5.016v4.031z"></path>
</symbol>
<symbol id="icon-cassette" viewBox="0 0 32 32">
<path d="M28.017 28.016h-2.065l-2.002-6.008h-16.961l-2.003 6.008h-2.003c-1.658 0-3.004-1.346-3.004-3.004v-18.024c0-1.659 1.346-3.003 3.004-3.003h25.033c1.659 0 3.004 1.345 3.004 3.003v18.024c0.001 1.658-1.344 3.004-3.003 3.004zM27.954 6.988h-24.971v13.017h24.971v-13.017zM26.014 18.002h-21.028v-9.011h21.027v9.011zM9.488 10.977c-1.383 0-2.503 1.121-2.503 2.503s1.12 2.503 2.503 2.503 2.504-1.121 2.504-2.503-1.121-2.503-2.504-2.503zM16.939 12.496h-2.941v2.002h2.941v-2.002zM21.513 10.977c-1.383 0-2.503 1.121-2.503 2.503s1.12 2.503 2.503 2.503c1.382 0 2.503-1.121 2.503-2.503s-1.121-2.503-2.503-2.503zM21.445 14.498c-0.553 0-1.001-0.448-1.001-1.001s0.448-1.001 1.001-1.001 1.002 0.448 1.002 1.001c0 0.553-0.449 1.001-1.002 1.001zM9.555 14.498c-0.553 0-1.001-0.448-1.001-1.001s0.448-1.001 1.001-1.001c0.554 0 1.002 0.448 1.002 1.001s-0.449 1.001-1.002 1.001zM23.26 23.009l1.753 4.965h-19.088l1.689-4.965h15.646zM22.009 26.013h1.001v-1.001h-1.001v1.001zM20.006 26.013h1.002v-1.001h-1.002v1.001zM12.997 26.013h4.944v-1.001h-4.944v1.001zM9.993 26.013h1.001v-1.001h-1.001v1.001zM7.99 26.013h1.001v-1.001h-1.001v1.001z"></path>
</symbol>
<symbol id="icon-transit_enterexit" viewBox="0 0 24 24">
<path d="M15.984 18h-9.984v-9.984h3v4.734l6.984-6.75 2.016 2.016-6.844 6.984h4.828v3z"></path>
</symbol>
<symbol id="icon-open_in_full" viewBox="0 0 24 24">
<path d="M21 11.016v-8.016h-8.016l3.328 3.281-10.031 10.031-3.281-3.328v8.016h8.016l-3.328-3.281 10.031-10.031z"></path>
</symbol>
<symbol id="icon-waves-outline" viewBox="0 0 24 24">
<path d="M20.221 10.761c0.498-0.552 0.779-1.252 0.779-2 0-0.801-0.312-1.555-0.879-2.121-0.566-0.567-1.32-0.879-2.121-0.879s-1.555 0.312-2.121 0.879c-0.233 0.232-0.546 0.361-0.879 0.361s-0.646-0.129-0.879-0.362c-1.366-1.366-3.185-2.118-5.121-2.118s-3.755 0.752-5.121 2.118c-0.567 0.567-0.879 1.321-0.879 2.122 0 0.748 0.281 1.448 0.779 2-0.498 0.551-0.779 1.252-0.779 2s0.281 1.448 0.779 2c-0.498 0.551-0.779 1.252-0.779 2 0 0.801 0.312 1.555 0.879 2.121 0.566 0.566 1.32 0.879 2.121 0.879s1.555-0.312 2.121-0.879c0.234-0.233 0.545-0.362 0.878-0.362s0.646 0.129 0.88 0.363c1.367 1.365 3.185 2.117 5.121 2.117s3.755-0.752 5.121-2.118c0.567-0.567 0.879-1.32 0.879-2.121 0-0.748-0.281-1.448-0.779-2 0.498-0.552 0.779-1.252 0.779-2s-0.281-1.449-0.779-2zM18.707 17.468c-1.021 1.021-2.364 1.532-3.707 1.532s-2.685-0.511-3.707-1.532c-0.633-0.632-1.463-0.948-2.293-0.948s-1.661 0.316-2.292 0.948c-0.196 0.195-0.452 0.293-0.708 0.293s-0.512-0.098-0.707-0.293c-0.391-0.391-0.391-1.023 0-1.414 1.021-1.021 2.364-1.532 3.706-1.532s2.686 0.511 3.708 1.532c0.632 0.632 1.463 0.947 2.293 0.947s1.661-0.315 2.293-0.947c0.195-0.195 0.451-0.293 0.707-0.293s0.512 0.098 0.707 0.293c0.391 0.39 0.391 1.023 0 1.414zM5.293 8.054c1.021-1.022 2.365-1.533 3.707-1.533 1.343 0 2.685 0.511 3.707 1.532 0.632 0.633 1.463 0.948 2.293 0.948s1.661-0.315 2.293-0.947c0.195-0.196 0.451-0.293 0.707-0.293s0.512 0.098 0.707 0.293c0.391 0.391 0.391 1.023 0 1.414-1.021 1.021-2.364 1.532-3.707 1.532s-2.685-0.511-3.707-1.532c-0.633-0.632-1.463-0.948-2.293-0.948s-1.661 0.316-2.292 0.948c-0.196 0.195-0.452 0.293-0.708 0.293s-0.512-0.098-0.707-0.293c-0.391-0.391-0.391-1.024 0-1.414zM18.707 13.468c-1.021 1.021-2.364 1.532-3.707 1.532s-2.685-0.511-3.707-1.532c-0.633-0.632-1.463-0.948-2.293-0.948s-1.661 0.316-2.292 0.948c-0.196 0.195-0.452 0.293-0.708 0.293s-0.512-0.098-0.707-0.293c-0.391-0.391-0.391-1.023 0-1.414 1.021-1.021 2.364-1.532 3.706-1.532s2.686 0.511 3.708 1.532c0.632 0.632 1.463 0.947 2.293 0.947s1.661-0.315 2.293-0.947c0.195-0.195 0.451-0.293 0.707-0.293s0.512 0.098 0.707 0.293c0.391 0.39 0.391 1.023 0 1.414z"></path>
</symbol>
<symbol id="icon-important_devices" viewBox="0 0 24 24">
<path d="M11.953 9h3.047l-2.484 1.781 0.938 2.906-2.438-1.828-2.484 1.828 0.938-2.906-2.484-1.781h3.047l0.984-3zM20.016 2.016q0.844 0 1.406 0.563t0.563 1.406v5.016h-1.969v-5.016h-18v12h12.984v2.016h-2.016v2.016h2.016v1.969h-8.016v-1.969h2.016v-2.016h-6.984q-0.844 0-1.43-0.586t-0.586-1.43v-12q0-0.844 0.586-1.406t1.43-0.563h18zM23.016 20.016v-7.031h-5.016v7.031h5.016zM23.016 11.016q0.422 0 0.703 0.281t0.281 0.703v9q0 0.422-0.281 0.703t-0.703 0.281h-5.016q-0.422 0-0.703-0.281t-0.281-0.703v-9q0-0.422 0.281-0.703t0.703-0.281h5.016z"></path>
</symbol>
<symbol id="icon-add-solid" viewBox="0 0 20 20">
<path d="M11 9v-4h-2v4h-4v2h4v4h2v-4h4v-2h-4zM10 20c-5.523 0-10-4.477-10-10s4.477-10 10-10v0c5.523 0 10 4.477 10 10s-4.477 10-10 10v0z"></path>
</symbol>
<symbol id="icon-paperplane" viewBox="0 0 32 32">
<path d="M31.543 0.16c-0.166-0.107-0.355-0.16-0.543-0.16-0.193 0-0.387 0.055-0.555 0.168l-30 20c-0.309 0.205-0.479 0.566-0.439 0.936 0.038 0.369 0.278 0.688 0.623 0.824l7.824 3.131 3.679 6.438c0.176 0.309 0.503 0.5 0.857 0.504 0.004 0 0.007 0 0.011 0 0.351 0 0.677-0.186 0.857-0.486l2.077-3.463 9.695 3.877c0.119 0.048 0.244 0.071 0.371 0.071 0.17 0 0.338-0.043 0.49-0.129 0.264-0.148 0.445-0.408 0.496-0.707l5-30c0.065-0.393-0.109-0.787-0.443-1.004zM3.136 20.777l23.175-15.451-16.85 18.037c-0.089-0.053-0.168-0.123-0.266-0.162l-6.059-2.424zM10.189 24.066c-0.002-0.004-0.005-0.006-0.007-0.010l18.943-20.275-16.149 25.162-2.787-4.877zM25.217 29.609l-8.541-3.416c-0.203-0.080-0.414-0.107-0.623-0.119l13.152-20.388-3.988 23.923z"></path>
</symbol>
</defs>
</svg>
