<svg aria-hidden="true" style="position: absolute; width: 0; height: 0; overflow: hidden;" version="1.1" xmlns="http://www.w3.org/2000/svg" xmlns:xlink="http://www.w3.org/1999/xlink">
<defs>
<symbol id="icon-spotify" viewBox="0 0 32 32">
<path d="M16 0c-8.8 0-16 7.2-16 16s7.2 16 16 16 16-7.2 16-16-7.119-16-16-16zM23.363 23.119c-0.319 0.481-0.881 0.637-1.363 0.319-3.762-2.319-8.481-2.8-14.081-1.519-0.563 0.163-1.037-0.238-1.2-0.719-0.162-0.563 0.237-1.038 0.719-1.2 6.081-1.363 11.363-0.8 15.519 1.762 0.563 0.238 0.644 0.875 0.406 1.356zM25.281 18.719c-0.4 0.563-1.119 0.8-1.681 0.4-4.319-2.637-10.881-3.438-15.919-1.837-0.638 0.163-1.362-0.163-1.519-0.8-0.162-0.637 0.162-1.363 0.8-1.519 5.838-1.762 13.037-0.881 18 2.163 0.475 0.238 0.719 1.038 0.319 1.594zM25.438 14.238c-5.119-3.037-13.681-3.363-18.563-1.838-0.8 0.238-1.6-0.238-1.838-0.963-0.237-0.8 0.237-1.6 0.963-1.838 5.681-1.681 15.038-1.363 20.962 2.162 0.719 0.4 0.962 1.363 0.563 2.081-0.406 0.556-1.363 0.794-2.087 0.394z"></path>
</symbol>
<symbol id="icon-facebook2" viewBox="0 0 32 32">
<path d="M29 0h-26c-1.65 0-3 1.35-3 3v26c0 1.65 1.35 3 3 3h13v-14h-4v-4h4v-2c0-3.306 2.694-6 6-6h4v4h-4c-1.1 0-2 0.9-2 2v2h6l-1 4h-5v14h9c1.65 0 3-1.35 3-3v-26c0-1.65-1.35-3-3-3z"></path>
</symbol>
<symbol id="icon-long-arrow-up" viewBox="0 0 12 28">
<path d="M11.953 7.703c-0.078 0.172-0.25 0.297-0.453 0.297h-3.5v19.5c0 0.281-0.219 0.5-0.5 0.5h-3c-0.281 0-0.5-0.219-0.5-0.5v-19.5h-3.5c-0.203 0-0.375-0.109-0.453-0.297s-0.047-0.391 0.078-0.547l5.469-6c0.094-0.094 0.219-0.156 0.359-0.156v0c0.141 0 0.281 0.063 0.375 0.156l5.547 6c0.125 0.156 0.156 0.359 0.078 0.547z"></path>
</symbol>
<symbol id="icon-replay" viewBox="0 0 24 24">
<path d="M12 5.016q3.328 0 5.672 2.344t2.344 5.625q0 3.328-2.367 5.672t-5.648 2.344-5.648-2.344-2.367-5.672h2.016q0 2.484 1.758 4.242t4.242 1.758 4.242-1.758 1.758-4.242-1.758-4.242-4.242-1.758v4.031l-5.016-5.016 5.016-5.016v4.031z"></path>
</symbol>
<symbol id="icon-cassette" viewBox="0 0 32 32">
<path d="M28.017 28.016h-2.065l-2.002-6.008h-16.961l-2.003 6.008h-2.003c-1.658 0-3.004-1.346-3.004-3.004v-18.024c0-1.659 1.346-3.003 3.004-3.003h25.033c1.659 0 3.004 1.345 3.004 3.003v18.024c0.001 1.658-1.344 3.004-3.003 3.004zM27.954 6.988h-24.971v13.017h24.971v-13.017zM26.014 18.002h-21.028v-9.011h21.027v9.011zM9.488 10.977c-1.383 0-2.503 1.121-2.503 2.503s1.12 2.503 2.503 2.503 2.504-1.121 2.504-2.503-1.121-2.503-2.504-2.503zM16.939 12.496h-2.941v2.002h2.941v-2.002zM21.513 10.977c-1.383 0-2.503 1.121-2.503 2.503s1.12 2.503 2.503 2.503c1.382 0 2.503-1.121 2.503-2.503s-1.121-2.503-2.503-2.503zM21.445 14.498c-0.553 0-1.001-0.448-1.001-1.001s0.448-1.001 1.001-1.001 1.002 0.448 1.002 1.001c0 0.553-0.449 1.001-1.002 1.001zM9.555 14.498c-0.553 0-1.001-0.448-1.001-1.001s0.448-1.001 1.001-1.001c0.554 0 1.002 0.448 1.002 1.001s-0.449 1.001-1.002 1.001zM23.26 23.009l1.753 4.965h-19.088l1.689-4.965h15.646zM22.009 26.013h1.001v-1.001h-1.001v1.001zM20.006 26.013h1.002v-1.001h-1.002v1.001zM12.997 26.013h4.944v-1.001h-4.944v1.001zM9.993 26.013h1.001v-1.001h-1.001v1.001zM7.99 26.013h1.001v-1.001h-1.001v1.001z"></path>
</symbol>
<symbol id="icon-transit_enterexit" viewBox="0 0 24 24">
<path d="M15.984 18h-9.984v-9.984h3v4.734l6.984-6.75 2.016 2.016-6.844 6.984h4.828v3z"></path>
</symbol>
<symbol id="icon-open_in_full" viewBox="0 0 24 24">
<path d="M21 11.016v-8.016h-8.016l3.328 3.281-10.031 10.031-3.281-3.328v8.016h8.016l-3.328-3.281 10.031-10.031z"></path>
</symbol>
</defs>
</svg>
